<svg data-v-0dd9719b="" version="1.0" xmlns="http://www.w3.org/2000/svg" xmlns:xlink="http://www.w3.org/1999/xlink" width="100%" height="100%" viewBox="0 0 340.000000 250.000000" preserveAspectRatio="xMidYMid meet" color-interpolation-filters="sRGB" style="margin: auto;"> <rect data-v-0dd9719b="" x="0" y="0" width="100%" height="100%" fill="#fff" fill-opacity="1" class="background"></rect> <rect data-v-0dd9719b="" x="0" y="0" width="100%" height="100%" fill="url(#watermark)" fill-opacity="1" class="watermarklayer"></rect> <g data-v-0dd9719b="" fill="#00476e" class="icon-text-wrapper icon-svg-group iconsvg" transform="translate(47.965003967285156,94.98078536987305)"><g class="iconsvg-imagesvg" transform="translate(0,0)"><g><rect fill="#00476e" fill-opacity="0" stroke-width="2" x="0" y="0" width="60" height="60.03842459173871" class="image-rect"></rect> <svg x="0" y="0" width="60" height="60.03842459173871" filtersec="colorsb8584299585" class="image-svg-svg primary" style="overflow: visible;"><svg xmlns="http://www.w3.org/2000/svg" viewBox="0 0 77.87000274658203 77.91999816894531"><g><g><path d="M77.86 48v29.92L48 77.86zM0 29.91V0h29.91z" fill="#00476e"></path><path fill="#8fc31f" d="M77.87.01l-.01 29.72-19.5 19.5-29.71-29.71L48.15.02 77.87.01z"></path><path fill="#c30d23" d="M49.25 58.34L29.73 77.86l-29.72.01.01-29.72 19.52-19.52 29.71 29.71z"></path></g></g></svg></svg> <!----></g></g> <g transform="translate(67,1.8229656219482422)"><g data-gra="path-name" fill-rule="" class="tp-name iconsvg-namesvg" transform="translate(0,0)"><g transform="scale(1)"><g><path d="M40.37 3.28L40.37 3.28 4.46 3.28Q3.82 3.28 3.4 2.88 2.97 2.48 2.97 1.84L2.97 1.84 2.97-13.77Q2.97-14.4 3.4-14.83 3.82-15.25 4.46-15.25L4.46-15.25 40.37-15.25Q40.99-15.25 41.42-14.83 41.85-14.4 41.85-13.77L41.85-13.77 41.85 1.84Q41.85 2.48 41.42 2.88 40.99 3.28 40.37 3.28L40.37 3.28ZM41.4-23.63L41.4-23.63 34.02-32.71 10.8-32.71 3.42-23.63 1.13-25.52 8.96-35.1Q9.36-35.64 10.13-35.64L10.13-35.64 34.7-35.64Q35.46-35.64 35.87-35.1L35.87-35.1 43.7-25.52 41.4-23.63ZM42.66-22.41L42.66-19.48 2.29-19.48 2.29-22.41 42.66-22.41ZM5.94-12.29L5.94 0.36 38.88 0.36 38.88-12.29 5.94-12.29ZM87.44 3.92L87.44 3.92 65.3 3.92Q64.66 3.92 64.24 3.49 63.81 3.06 63.81 2.43L63.81 2.43 63.81-13.28 63.81-13.46 63.81-34.2Q63.81-34.83 64.24-35.23 64.66-35.64 65.3-35.64L65.3-35.64 85.19-35.64Q85.81-35.64 86.24-35.23 86.67-34.83 86.67-34.2L86.67-34.2 86.67-13.46Q86.67-12.82 86.24-12.4 85.81-11.97 85.19-11.97L85.19-11.97 66.78-11.97 66.78 0.99 87.44 0.99 87.44 3.92ZM49.81 4.46L49.81 4.46 46.94 3.87 48.38-3.33 48.38-34.2Q48.38-34.83 48.8-35.23 49.23-35.64 49.86-35.64L49.86-35.64 59.72-35.64Q60.34-35.64 60.77-35.23 61.2-34.83 61.2-34.2L61.2-34.2 61.2 2.7Q61.2 3.33 60.77 3.76 60.34 4.18 59.72 4.18L59.72 4.18 53.77 4.18 53.77 1.21 58.23 1.21 58.23-10.26 51.3-10.26 51.3-2.92 49.81 4.46ZM58.23-24.66L58.23-32.71 51.3-32.71 51.3-24.66 58.23-24.66ZM66.78-32.71L66.78-14.94 73.75-14.94 73.75-32.71 66.78-32.71ZM76.72-14.94L83.75-14.94 83.75-32.71 76.72-32.71 76.72-14.94ZM51.3-21.73L51.3-13.18 58.23-13.18 58.23-21.73 51.3-21.73ZM130-12.73L130-12.73 127.35-12.73 127.35 1.17 132.16 1.17 132.16 4.09 125.87 4.09Q125.23 4.09 124.83 3.69 124.42 3.28 124.42 2.65L124.42 2.65 124.42-12.73 114.21-12.73 110.03 4.18 107.14 3.46 111.19-12.73 108.63-12.73Q108-12.73 107.57-13.16 107.14-13.59 107.14-14.22L107.14-14.22 107.14-30.46Q107.14-31.09 107.57-31.52 108-31.95 108.63-31.95L108.63-31.95 110.92-31.95 109.39-35.41 112.09-36.63 113.81-32.85 111.87-31.95 124.34-31.95 126.59-36.63 129.24-35.37 127.57-31.95 130-31.95Q130.63-31.95 131.06-31.52 131.49-31.09 131.49-30.46L131.49-30.46 131.49-14.22Q131.49-13.59 131.06-13.16 130.63-12.73 130-12.73L130-12.73ZM106.16-9.9L106.16-9.9 100.13-9.9 100.13 0.81 105.75-0.72 106.52 2.07 99.05 4.18Q98.95 4.18 98.84 4.21 98.73 4.23 98.64 4.23L98.64 4.23Q98.19 4.23 97.74 3.92L97.74 3.92Q97.16 3.46 97.16 2.75L97.16 2.75 97.16-9.9 92.39-9.9 92.39-12.87 97.16-12.87 97.16-22.45 92.75-22.45 92.75-25.43 105.93-25.43 105.93-22.45 100.13-22.45 100.13-12.87 106.16-12.87 106.16-9.9ZM106.16-30.38L106.16-30.38 93.87-30.38Q93.06-30.38 92.61-31.09L92.61-31.09Q92.2-31.77 92.56-32.53L92.56-32.53 94.77-36.67 97.38-35.28 96.34-33.34 106.16-33.34 106.16-30.38ZM110.11-29.02L110.11-15.71 128.52-15.71 128.52-29.02 110.11-29.02ZM177.66-23.49L177.66-23.49 174.64-23.49 174.64-17.59Q174.64-16.96 174.22-16.56 173.79-16.16 173.16-16.16L173.16-16.16 147.69-16.16Q147.06-16.16 146.63-16.56 146.21-16.96 146.21-17.59L146.21-17.59 146.21-23.49 141.53-23.49 141.53-3.73Q141.53-3.6 141.5-3.49 141.48-3.38 141.44-3.24L141.44-3.24 138.78 4.37 135.99 3.42 138.56-4 138.56-32.53Q138.56-33.16 138.98-33.59 139.41-34.02 140.04-34.02L140.04-34.02 156.33-34.02 155.66-35.68 158.4-36.81 159.53-34.02 177.44-34.02 177.44-31.05 141.53-31.05 141.53-26.46 146.21-26.46 146.21-29.65 149.18-29.65 149.18-26.46 171.68-26.46 171.68-29.65 174.64-29.65 174.64-26.46 177.66-26.46 177.66-23.49ZM177.16 4.59L177.16 4.59 161.01-1.26 143.41 4.63 142.47 1.8 156.51-2.88 143.5-7.65 144.54-10.39 161.01-4.41 174.01-8.78 174.01-11.03 143.37-11.03 143.37-13.99 175.5-13.99Q176.13-13.99 176.53-13.57 176.94-13.14 176.94-12.51L176.94-12.51 176.94-7.74Q176.94-7.25 176.67-6.86 176.4-6.48 175.95-6.3L175.95-6.3 165.47-2.79 178.2 1.84 177.16 4.59ZM149.18-19.08L171.68-19.08 171.68-23.49 149.18-23.49 149.18-19.08Z" transform="translate(-1.1299999952316284, 36.810001373291016)"></path></g> <!----> <!----> <!----> <!----> <!----> <!----> <!----></g></g> <g data-gra="path-slogan" fill-rule="" class="tp-slogan iconsvg-slogansvg" fill="#00476e" transform="translate(4.999992370605469,47.44000244140625)"><rect x="0" height="1" y="3.9750003814697266" width="25.17499542236328"></rect> <rect height="1" y="3.9750003814697266" width="25.17499542236328" x="141.8949966430664"></rect> <g transform="translate(28.17499542236328,0)"><g transform="scale(1)"><path d="M2.06-5.06L6.56-5.06L6.56-8.58L7.73-8.58L7.73 0L6.56 0L6.56-3.98L2.06-3.98L2.06 0L0.89 0L0.89-8.58L2.06-8.58L2.06-5.06ZM10.83-1.03L15.98-1.03L15.98 0L9.66 0L9.66-8.58L15.89-8.58L15.89-7.59L10.83-7.59L10.83-4.92L15.52-4.92L15.52-3.89L10.83-3.89L10.83-1.03ZM23.02-3.89L18.80-3.89L18.80 0L17.63 0L17.63-8.58L23.58-8.58L23.58-7.59L18.80-7.59L18.80-4.92L23.02-4.92L23.02-3.89ZM26.06-1.03L31.22-1.03L31.22 0L24.89 0L24.89-8.58L31.13-8.58L31.13-7.59L26.06-7.59L26.06-4.92L30.75-4.92L30.75-3.89L26.06-3.89L26.06-1.03ZM32.91-8.58L34.08-8.58L34.08 0L32.91 0L32.91-8.58ZM45.66-6.09L45.66-6.09L44.58-6.09Q44.48-7.73 42.42-7.83L42.42-7.83Q40.50-7.78 40.50-6.33L40.50-6.33Q40.50-5.39 41.53-5.25L41.53-5.25L43.97-4.69Q45.89-4.22 45.89-2.34L45.89-2.34Q45.84 0.05 42.52 0.14L42.52 0.14Q40.69 0.14 39.94-0.61L39.94-0.61Q39-1.31 39.05-2.77L39.05-2.77L40.17-2.77Q40.22-0.80 42.52-0.75L42.52-0.75Q44.77-0.80 44.81-2.20L44.81-2.20Q45-3.38 42.94-3.75L42.94-3.75L41.16-4.13Q39.33-4.64 39.33-6.19L39.33-6.19Q39.47-8.72 42.33-8.81L42.33-8.81Q45.56-8.81 45.66-6.09ZM48.52-5.06L53.02-5.06L53.02-8.58L54.19-8.58L54.19 0L53.02 0L53.02-3.98L48.52-3.98L48.52 0L47.34 0L47.34-8.58L48.52-8.58L48.52-5.06ZM61.64 0L60.80-2.48L57.33-2.48L56.44 0L55.27 0L58.50-8.58L59.81-8.58L62.91 0L61.64 0ZM59.06-7.31L57.70-3.52L60.38-3.52L59.11-7.31L59.06-7.31ZM68.06-3.70L65.25-3.70L65.25 0L64.08 0L64.08-8.58L68.06-8.58Q70.92-8.58 70.92-6.28L70.92-6.28Q70.92-4.88 69.70-4.22L69.70-4.22Q70.73-3.94 70.73-2.58L70.73-2.58L70.83-1.03Q70.78-0.38 71.25-0.19L71.25-0.19L71.25 0L69.80 0Q69.66-0.61 69.61-2.16L69.61-2.16Q69.66-3.70 68.06-3.70L68.06-3.70ZM68.16-7.64L65.25-7.64L65.25-4.69L67.97-4.69Q69.70-4.69 69.70-6.19L69.70-6.19Q69.70-7.64 68.16-7.64L68.16-7.64ZM76.22-7.64L73.88-7.64L73.88-4.64L76.17-4.64Q77.95-4.64 77.95-6.19L77.95-6.19Q77.95-7.59 76.22-7.64L76.22-7.64ZM76.59-3.61L73.88-3.61L73.88 0L72.70 0L72.70-8.58L76.59-8.58Q79.03-8.48 79.13-6.19L79.13-6.19Q78.98-3.70 76.59-3.61L76.59-3.61ZM81.94-8.58L86.25-1.64L86.25-8.58L87.38-8.58L87.38 0L86.06 0L81.70-6.94L81.66-6.94L81.66 0L80.53 0L80.53-8.58L81.94-8.58ZM90.47-1.03L95.63-1.03L95.63 0L89.30 0L89.30-8.58L95.53-8.58L95.53-7.59L90.47-7.59L90.47-4.92L95.16-4.92L95.16-3.89L90.47-3.89L90.47-1.03ZM103.41-6.09L103.41-6.09L102.33-6.09Q102.23-7.73 100.17-7.83L100.17-7.83Q98.25-7.78 98.25-6.33L98.25-6.33Q98.25-5.39 99.28-5.25L99.28-5.25L101.72-4.69Q103.64-4.22 103.64-2.34L103.64-2.34Q103.59 0.05 100.27 0.14L100.27 0.14Q98.44 0.14 97.69-0.61L97.69-0.61Q96.75-1.31 96.80-2.77L96.80-2.77L97.92-2.77Q97.97-0.80 100.27-0.75L100.27-0.75Q102.52-0.80 102.56-2.20L102.56-2.20Q102.75-3.38 100.69-3.75L100.69-3.75L98.91-4.13Q97.08-4.64 97.08-6.19L97.08-6.19Q97.22-8.72 100.08-8.81L100.08-8.81Q103.31-8.81 103.41-6.09ZM111.38-6.09L111.38-6.09L110.30-6.09Q110.20-7.73 108.14-7.83L108.14-7.83Q106.22-7.78 106.22-6.33L106.22-6.33Q106.22-5.39 107.25-5.25L107.25-5.25L109.69-4.69Q111.61-4.22 111.61-2.34L111.61-2.34Q111.56 0.05 108.23 0.14L108.23 0.14Q106.41 0.14 105.66-0.61L105.66-0.61Q104.72-1.31 104.77-2.77L104.77-2.77L105.89-2.77Q105.94-0.80 108.23-0.75L108.23-0.75Q110.48-0.80 110.53-2.20L110.53-2.20Q110.72-3.38 108.66-3.75L108.66-3.75L106.88-4.13Q105.05-4.64 105.05-6.19L105.05-6.19Q105.19-8.72 108.05-8.81L108.05-8.81Q111.28-8.81 111.38-6.09Z" transform="translate(-0.890625, 8.8125)"></path></g></g></g></g></g><defs v-gra="od"></defs></svg>